<?xml version="1.0" standalone="no"?>
<!DOCTYPE svg PUBLIC "-//W3C//DTD SVG 20010904//EN"
 "http://www.w3.org/TR/2001/REC-SVG-20010904/DTD/svg10.dtd">
<svg version="1.0" xmlns="http://www.w3.org/2000/svg"
 width="512.000000pt" height="512.000000pt" viewBox="0 0 512.000000 512.000000"
 preserveAspectRatio="xMidYMid meet">
<metadata>
Created by potrace 1.14, written by Peter Selinger 2001-2017
</metadata>
<g transform="translate(0.000000,512.000000) scale(0.100000,-0.100000)"
fill="#000000" stroke="none">
<path d="M480 3667 c-131 -18 -236 -74 -328 -171 -67 -72 -123 -177 -141 -265
-8 -36 -11 -258 -11 -680 1 -511 3 -636 15 -681 52 -197 220 -363 415 -411 45
-11 428 -13 2135 -13 2325 0 2120 -6 2266 70 135 71 252 230 278 378 7 38 11
284 11 675 0 664 -2 686 -54 789 -76 149 -197 249 -362 298 -56 17 -179 18
-2114 19 -1131 0 -2080 -3 -2110 -8z"/>
</g>
</svg>
